<?xml version="1.0" encoding="UTF-8" standalone="no"?>
<svg
   height="16"
   viewBox="0 0 16 16"
   width="16"
   version="1.1"
   id="svg130"
   sodipodi:docname="tile_bit_tools_16.svg"
   inkscape:version="1.2.2 (732a01da63, 2022-12-09)"
   inkscape:export-filename="tile_bit_tools_32.png"
   inkscape:export-xdpi="96"
   inkscape:export-ydpi="96"
   xmlns:inkscape="http://www.inkscape.org/namespaces/inkscape"
   xmlns:sodipodi="http://sodipodi.sourceforge.net/DTD/sodipodi-0.dtd"
   xmlns="http://www.w3.org/2000/svg"
   xmlns:svg="http://www.w3.org/2000/svg">
  <defs
     id="defs134">
    <inkscape:path-effect
       effect="powerclip"
       id="path-effect6485"
       is_visible="true"
       lpeversion="1"
       inverse="true"
       flatten="false"
       hide_clip="false"
       message="Use fill-rule evenodd on &lt;b&gt;fill and stroke&lt;/b&gt; dialog if no flatten result after convert clip to paths." />
    <clipPath
       clipPathUnits="userSpaceOnUse"
       id="clipPath6174">
      <g
         inkscape:label="Clip"
         id="use6176" />
    </clipPath>
    <filter
       id="mask-powermask-path-effect6204_inverse"
       inkscape:label="filtermask-powermask-path-effect6204"
       style="color-interpolation-filters:sRGB"
       height="100"
       width="100"
       x="-50"
       y="-50">
      <feColorMatrix
         id="mask-powermask-path-effect6204_primitive1"
         values="1"
         type="saturate"
         result="fbSourceGraphic" />
      <feColorMatrix
         id="mask-powermask-path-effect6204_primitive2"
         values="-1 0 0 0 1 0 -1 0 0 1 0 0 -1 0 1 0 0 0 1 0 "
         in="fbSourceGraphic" />
    </filter>
  </defs>
  <sodipodi:namedview
     id="namedview132"
     pagecolor="#919191"
     bordercolor="#000000"
     borderopacity="0.25"
     inkscape:showpageshadow="2"
     inkscape:pageopacity="1"
     inkscape:pagecheckerboard="0"
     inkscape:deskcolor="#d1d1d1"
     showgrid="false"
     inkscape:zoom="12.22215"
     inkscape:cx="3.7636586"
     inkscape:cy="21.559218"
     inkscape:window-width="1920"
     inkscape:window-height="1010"
     inkscape:window-x="-6"
     inkscape:window-y="-6"
     inkscape:window-maximized="1"
     inkscape:current-layer="svg130" />
  <g
     inkscape:groupmode="layer"
     id="layer1"
     inkscape:label="Bkg" />
  <path
     d="M 0.56042961,0.50308662 V 3.159537 H 3.21688 V 0.50308662 Z m 3.98467769,0 V 3.159537 H 7.2015584 V 0.50308662 Z m 3.9846779,0 V 3.159537 H 11.186236 V 0.50308662 Z M 0.56042961,4.4877649 V 7.1442143 H 3.21688 V 4.4877649 Z m 3.98467769,0 V 7.1442143 H 7.2015584 V 4.4877649 Z M 0.56042961,8.4724416 V 11.128891 H 3.21688 V 8.4724416 Z"
     fill="#8da5f3"
     id="path128"
     style="fill:#ffca5f;fill-opacity:1;stroke-width:1.32822"
     inkscape:label="Tiles"
     sodipodi:nodetypes="cccccccccccccccccccccccccccccc"
     clip-path="none" />
  <path
     style="color:#000000;display:none;fill:#ffffff;-inkscape-stroke:none;paint-order:stroke markers fill"
     d="m 18.217808,8.7926384 -3.322265,0.1054687 h -0.181641 l -0.152344,0.050781 c -0.303127,0.101048 -0.607141,0.2417728 -0.912109,0.4003909 -0.287942,0.1175566 -0.522685,0.3982617 -0.679687,0.679688 -0.207926,0.360876 -0.267476,0.828674 -0.164062,1.138671 l 0.02148,0.06836 0.246094,0.490234 3.919921,3.750002 0.09961,0.154297 -0.0098,0.0098 c -0.588832,0.61337 -0.88267,1.019931 -1.56836,1.439453 l -0.21875,0.09766 L 11.485386,13.366859 10.780308,12.925452 9.8799175,13.10514 9.73148,13.19498 c -0.3115176,0.18697 -0.5534981,0.515736 -0.6640625,0.837894 -0.2739917,0.730901 -0.4288183,1.478136 -0.4589844,2.228516 -0.2070702,2.151091 0.5917301,4.167529 2.1015629,5.916015 l 0.265066,0.155041 0.04353,0.341053 c 1.255739,1.20449 2.686113,2.359791 4.499535,2.240235 l 0.236793,-0.460938 -0.382254,0.481678 1.679129,0.0359 c 0.61759,0.632591 1.235532,1.258165 1.830078,1.888672 l 0.01172,0.01172 3.767578,3.736328 v 0.0625 l 0.330079,0.298828 c 1.071142,0.964035 2.406541,1.482422 3.835937,1.482422 1.54255,0 2.927781,-0.510817 3.917969,-1.529297 l 0.01367,-0.01563 c 1.04318,-1.015727 1.597656,-2.385552 1.597656,-3.882812 v -0.02734 l -0.03711,-0.658203 -0.002,-0.01758 C 32.205313,25.087265 31.62746,23.970773 30.688466,23.142247 l 0.04297,0.03906 -5.761719,-5.697266 0.03125,-0.359375 v -1.029297 -0.03516 -0.128906 l -0.0078,-0.06055 C 24.854264,14.744118 24.773555,13.781388 24.198149,12.848526 23.842817,12.294027 23.09397,11.638835 22.571321,11.105136 21.377466,9.8858837 19.930189,9.0979456 18.319371,8.8121696 Z m -0.1875,2.0078126 c 1.176871,0.221348 2.187888,0.761993 3.111328,1.705079 l 0.681641,-1.623048 -0.618488,0.787388 -0.05534,0.874722 c 1.08213,0.98376 1.66994,2.119217 1.851562,3.544922 v 0.0059 0.94336 l -0.105469,1.207031 6.449219,6.376953 0.02148,0.01953 c 0.604444,0.533335 0.88947,1.094684 0.958984,1.859375 l 0.0293,0.535156 c -0.0031,1.036697 -0.311773,1.776894 -0.990235,2.4375 l -0.0059,0.0039 -0.04297,0.04297 -0.0039,0.0059 c -0.598656,0.615761 -1.348603,0.923828 -2.484375,0.923828 -0.933878,0 -1.681433,-0.296268 -2.396484,-0.90625 l -4.09375,-4.058594 -0.0059,-0.0059 -0.01758,-0.01758 C 19.615812,24.723567 18.908889,24.00909 18.215775,23.296577 L 17.944291,23.01728 15.774369,22.894233 c -1.29104,-0.229047 -2.35447,-0.748787 -3.265624,-1.589843 l -0.07617,-0.08008 c -1.456629,-1.518288 -2.013486,-3.034325 -1.837814,-4.791046 l 0.0039,-0.0332 v -0.0332 c 0.01,-0.288142 0.118171,-0.58492 0.181641,-0.876953 l 3.322266,3.322265 0.976562,0.652344 1.398438,-0.625 0.05273,-0.03125 c 0.978416,-0.591396 1.475409,-1.241812 1.962891,-1.753906 0.26469,-0.249085 0.496993,-0.564891 0.601562,-0.957032 0.105623,-0.39609 0.05192,-0.834751 -0.101562,-1.185546 l -0.03125,-0.07422 -0.414063,-0.642578 -3.453125,-3.302735 z m 8.923828,13.810547 c -0.64576,0 -1.249014,0.277245 -1.748047,0.685547 l -0.128906,0.105469 -0.240234,0.390625 -0.207032,0.46289 -0.0918,0.183594 -0.107422,0.638672 v 0.08203 c 0,0.621152 0.241408,1.23048 0.628906,1.714844 l 0.06836,0.08594 0.08789,0.07031 c 0.49282,0.394247 1.117254,0.626953 1.748047,0.626953 0.641775,0 1.294084,-0.236742 1.767578,-0.673828 l 0.01367,-0.01367 0.01563,-0.01367 C 29.2348,28.48268 29.56351,27.839809 29.56351,27.159829 v -0.07617 l -0.113281,-0.736328 -0.642578,-0.964843 -0.111328,-0.07422 0.002,-0.002 c -0.0039,-0.0033 -0.0098,-0.0026 -0.01367,-0.0059 l -0.511719,-0.33789 -0.07031,0.105468 c -0.369213,-0.201423 -0.723336,-0.457031 -1.148438,-0.457031 z m 0,2 c 0.07048,0 0.20313,0.07534 0.347656,0.171875 l 0.06445,0.04297 0.173828,0.261719 0.01367,0.08984 c -0.0012,0.08204 -0.02845,0.16976 -0.195313,0.34375 -0.109262,0.09827 -0.182277,0.136719 -0.394531,0.136719 -0.145619,0 -0.260676,-0.06621 -0.390625,-0.148437 -0.07047,-0.11469 -0.130189,-0.221378 -0.132813,-0.324219 l 0.02148,-0.121094 -0.02344,0.04687 0.142578,-0.318359 c 0.158184,-0.103467 0.301709,-0.181641 0.373047,-0.181641 z"
     id="path6483"
     sodipodi:nodetypes="ccccccccccccccccccccccccccccccccsccsccccccccccccccccccccccccccccccccsccccccccccccccccccsccccccscccccsccsscccsccccccccccscccccscccccss" />
  <path
     d="m 10.497488,4.9280696 c 0.674252,0.612959 1.066545,1.3668958 1.176877,2.2618116 v 0.03677 0.018396 0.5332731 l -0.03678,0.4229393 3.291578,3.2548004 c 0.416809,0.367775 0.649736,0.82136 0.698771,1.360765 l 0.0184,0.330996 c 0,0.686512 -0.232924,1.256561 -0.698772,1.71015 l -0.0184,0.0184 c -0.429071,0.441331 -1.005248,0.661995 -1.728536,0.661995 -0.649738,0 -1.219786,-0.220664 -1.71015,-0.661995 v -0.0184 L 9.3022187,12.688104 C 8.9275615,12.290785 8.5429286,11.902694 8.1621169,11.511225 l -0.9746007,-0.05516 0.036781,0.0184 C 6.3661594,11.3396 5.636738,10.984088 5.0360415,10.407908 v -0.0184 C 4.1656421,9.482335 3.7856096,8.4770865 3.895942,7.3737653 3.9082354,7.0182484 3.9817564,6.6627363 4.1166071,6.3072204 4.1411333,6.2336673 4.1840289,6.1785069 4.2453205,6.1417209 L 4.4292073,6.1049344 4.5763124,6.1968797 6.672624,8.2931911 6.9073017,8.4501477 7.3600132,8.247872 C 7.8183094,7.9708582 8.0331021,7.6805281 8.3276072,7.3737502 8.511494,7.20212 8.5605306,7.0182332 8.4747134,6.8220888 L 8.3092172,6.5646489 6.2129041,4.5602799 6.1393516,4.4131742 C 6.1148146,4.3396212 6.120961,4.2783306 6.1577421,4.2292875 6.1822683,4.1679964 6.225164,4.1250813 6.2864556,4.1005746 6.4458227,4.0147605 6.5990639,3.9473381 6.7461744,3.8982986 h 0.018396 L 8.5114972,3.843138 c 0.760069,0.1348441 1.4281889,0.496495 2.0043698,1.0849333 h -0.0184 m 3.365132,7.7048677 c -0.392294,-0.330997 -0.790715,-0.330997 -1.195265,0 l -0.0637,0.103329 -0.101796,0.22767 -0.0184,0.03677 -0.03678,0.220665 c 0,0.208409 0.07355,0.404551 0.220665,0.588438 0.183887,0.147106 0.386163,0.220665 0.606827,0.220665 0.232923,0 0.42907,-0.07355 0.588437,-0.220665 0.183887,-0.183887 0.27583,-0.380029 0.27583,-0.588438 l -0.03678,-0.239052 -0.220663,-0.330997 -0.251967,-0.167028"
     style="display:inline;fill:#77ce57;fill-opacity:1;stroke:none;stroke-width:0.540105;stroke-dasharray:none;stroke-opacity:1;paint-order:stroke markers fill"
     id="path6165"
     sodipodi:nodetypes="cccccccccccscccccccccccccccccccccccccccccccccccsccccc" />
</svg>
